<svg xmlns="http://www.w3.org/2000/svg" viewBox="0 0 202.61 66.9"><title>Blibli logo</title><path d="M433.8,479.45a1.45,1.45,0,0,0-2.77.31h0s-2.31-1.11-1.71.19a10.58,10.58,0,0,0,1.65,2.32,16,16,0,0,0,3.52-.39,11.5,11.5,0,0,0,1-2.61c.29-1.34-1.55.06-1.7.18" transform="translate(-410.7 -478.55)" style="fill:#93bf3e"/><path d="M442.68,516.23a10.74,10.74,0,1,1-21.48,0,1.48,1.48,0,0,1,3,0h0a7.77,7.77,0,1,0,15.55,0h0a1.48,1.48,0,1,1,3,0" transform="translate(-410.7 -478.55)" style="fill:#fff"/><path d="M440.18,498.14l-1.42-12.24a1,1,0,0,0-.44-.63l-4.93-2.36-1.63.19-4,3.29-.12.09a1,1,0,0,0-.29.73l0,.15s1.4,12.09,1.4,12.09l11.37-1.31Z" transform="translate(-410.7 -478.55)" style="fill:#93bf3e"/><path d="M437.9,482.41a15.41,15.41,0,0,0-.55-2.56l-3.5,2a1.67,1.67,0,0,0-2.45.22l-3.74-1.19a13.67,13.67,0,0,0-.12,2.76,9.8,9.8,0,0,0,.65,2.44l3.27-1.86a1.67,1.67,0,0,0,2.75-.31l3.66,1.19a15.85,15.85,0,0,0,0-2.63" transform="translate(-410.7 -478.55)" style="fill:#0aaf58"/><path d="M434.94,501.23l17.19-1h.16l1.29-5.13a1.16,1.16,0,0,0-.84-1.41h0l-15.79-4a1.17,1.17,0,0,0-1.41.84l-2.72,10.8,2.13-.13" transform="translate(-410.7 -478.55)" style="fill:#e20a7e"/><path d="M444.8,500.64l2.28-8.27-4.55-1.14-2.68,9.71,4.94-.29" transform="translate(-410.7 -478.55)" style="fill:#f19021"/><path d="M451.92,489.86a2.44,2.44,0,0,0-.53-.65c-1.78-1.52-4.51.85-5.44,1.75a1.28,1.28,0,0,0-.79-.58,1.27,1.27,0,0,0-1,.14c-.53-1.29-2-4.34-4.21-3.71a2.46,2.46,0,0,0-.75.37,1.49,1.49,0,0,0-.75,1.51c.29,1.6,3.85,2.74,5.08,3.08a1.28,1.28,0,0,0,2.38.48h0c1.17.18,5.05.65,6-.73a1.48,1.48,0,0,0-.07-1.68m-11.92-1a.49.49,0,0,1,0-.65.77.77,0,0,1,.39-.24c.87-.26,1.81,1.06,2.42,2.28a10.8,10.8,0,0,1-2.76-1.39m11,2c-.32.47-1.77.5-3.53.36,1.05-.86,2.45-1.68,3.14-1.1.38.23.49.58.39.73m-38.22,11.7.34,0,22.39-1.32-2-9.12a1.12,1.12,0,0,0-1.34-.86l-19.76,4.37a1.12,1.12,0,0,0-.86,1.34l1.24,5.64Z" transform="translate(-410.7 -478.55)" style="fill:#f19021"/><path d="M427.38,490.13l.07-.05-.07.05" transform="translate(-410.7 -478.55)" style="fill:#fff"/><path d="M427.94,501.65l-2-9.11-7.17,1.59,1.76,8,7.43-.44" transform="translate(-410.7 -478.55)" style="fill:#df2127"/><path d="M427.9,487.67a2.93,2.93,0,0,0-.94-.29c-2.55-.31-3.72,3.24-4.13,4.93a1.23,1.23,0,0,0-1.56.37c-1.08-1.31-3.74-4.07-5.92-2.63a2.82,2.82,0,0,0-.71.68,1.74,1.74,0,0,0-.33,1.95c.89,1.75,5.49,1.76,6.88,1.73h.34a1.23,1.23,0,0,0,1.83-.37l.32-.15c1.26-.58,5.37-2.63,5.4-4.6a1.76,1.76,0,0,0-1.17-1.6m-12.12,4.55a.52.52,0,0,1,0-.64,1.57,1.57,0,0,1,.36-.35c.89-.58,2.4.58,3.5,1.74-2.07-.09-3.53-.33-3.85-.75m8.64-.32c.47-1.5,1.28-3.18,2.32-3.05a1.52,1.52,0,0,1,.47.15c.22.11.36.23.36.3,0,.52-1.38,1.61-3.16,2.59" transform="translate(-410.7 -478.55)" style="fill:#df2127"/><path d="M454,543.69c-2.07-9.36-3.43-26.54-.48-41a1.49,1.49,0,0,0-1.42-1.4l-38.9,2.3a1.48,1.48,0,0,0-1.39,1.48s0,.06,0,.09a111.09,111.09,0,0,1-1.1,38.74,1.47,1.47,0,0,0,1.21,1.4h40.82a1.48,1.48,0,0,0,1.25-1.47.61.61,0,0,0,0-.13" transform="translate(-410.7 -478.55)" style="fill:#0094d9"/><path d="M441.19,512.08a1.47,1.47,0,1,1,1.47-1.47,1.47,1.47,0,0,1-1.47,1.47m-18.38.07a1.47,1.47,0,1,1,1.47-1.47,1.47,1.47,0,0,1-1.47,1.47h0m19.87,4.25a10.67,10.67,0,0,1-21.34,0,1.47,1.47,0,1,1,2.94,0h0a7.72,7.72,0,0,0,15.45,0h0a1.47,1.47,0,0,1,2.94,0" transform="translate(-410.7 -478.55)" style="fill:#fff"/><path d="M558.53,505.14h-.13l-.12.07a12.79,12.79,0,0,0-5.59,7.38l-.37,1.32,1.25-.56c1.57-.7,6.59-.68,10.59,1.87a11.42,11.42,0,0,1,5.26,10c0,10.45-7.48,12.59-9.48,12.59-8,0-9.77-9.16-9.77-12.37V490.19h-.65a12.3,12.3,0,0,0-9.82,4.91l-.13.17V525.1a21.08,21.08,0,0,0,6.87,15.3,19.2,19.2,0,0,0,13.49,5c5.56,0,20-3.62,20-20.17a19.25,19.25,0,0,0-4.43-12.62c-5.27-6.46-13.85-7.87-17-7.52ZM608,500.78a5.32,5.32,0,1,0-5.32-5.32A5.33,5.33,0,0,0,608,500.78Zm-5.23,9.35-.13.17v35h.65a12.83,12.83,0,0,0,9.88-4.72l.14-.17v-35.2h-.65a12.53,12.53,0,0,0-9.89,4.88Zm-74.44-19.92a5.32,5.32,0,1,0,5.32,5.32A5.33,5.33,0,0,0,528.32,490.21Zm-5.23,20-.13.17v35h.65a12.83,12.83,0,0,0,9.88-4.72l.14-.17v-35.2H533a12.53,12.53,0,0,0-9.89,4.88Zm-44.22-5.07h-.13l-.12.07A12.76,12.76,0,0,0,473,512.6l-.36,1.32,1.25-.56c1.57-.7,6.59-.68,10.59,1.87a11.42,11.42,0,0,1,5.26,10c0,10.45-7.48,12.59-9.48,12.59-8,0-9.77-9.16-9.77-12.37V490.19h-.65A12.3,12.3,0,0,0,460,495.1l-.13.17V525.1a21.08,21.08,0,0,0,6.87,15.3,19.21,19.21,0,0,0,13.49,5c5.56,0,20-3.62,20-20.17a19.24,19.24,0,0,0-4.43-12.62c-5.27-6.46-13.86-7.88-17-7.52Z" transform="translate(-410.7 -478.55)" style="fill:#0094d9"/><path d="M506.37,484l-.12.16v61.11h.65c4.1,0,8.16-2,9.88-4.94l.09-.15V479h-.65a12.22,12.22,0,0,0-9.86,5.05Z" transform="translate(-410.7 -478.55)" style="fill:#0094d9"/><path d="M586,484l-.12.16v61.11h.65c4.1,0,8.16-2,9.88-4.94l.09-.15V479h-.65A12.22,12.22,0,0,0,586,484Z" transform="translate(-410.7 -478.55)" style="fill:#0094d9"/></svg>