<svg xmlns="http://www.w3.org/2000/svg" viewBox="0 0 148 32"><title>Tokopedia logo</title><path d="M517.12,518.5a7.8,7.8,0,0,1-5.76,2.46,9.23,9.23,0,0,1-4.9-1.28v-3.76a8.29,8.29,0,0,0,4.4,1.67c3.25,0,5.19-2.25,5.19-5.44s-2-5.51-5.26-5.51a4.49,4.49,0,0,0-3.55,1.58,7.3,7.3,0,0,0-1.5,4.92V528h-.24a3.25,3.25,0,0,1-3.25-3.26h0V512.59c0-5.15,3.13-9.31,8.52-9.31a8.25,8.25,0,0,1,6.46,2.75,9.38,9.38,0,0,1,2.3,6.51A8.22,8.22,0,0,1,517.12,518.5Zm37.79-.13a8,8,0,0,1-6.16,2.59,8.21,8.21,0,0,1-6.43-2.75,9.46,9.46,0,0,1-2.3-6.51,8.25,8.25,0,0,1,8.16-8.43,9.75,9.75,0,0,1,4.91,1.25v3.8a8.29,8.29,0,0,0-4.4-1.67c-3.25,0-5.19,2.25-5.19,5.44s2,5.51,5.26,5.51a4.56,4.56,0,0,0,3.6-1.65,7.21,7.21,0,0,0,1.45-4.86V499.26a3.25,3.25,0,0,1,3.25-3.26h.25v15.64A9.53,9.53,0,0,1,554.92,518.37Zm9.86-16.76a2,2,0,0,1-1.53.6,2,2,0,0,1-2.06-2.08,2,2,0,0,1,2.05-2,2,2,0,0,1,2.06,2,2.15,2.15,0,0,1-.52,1.48Zm17.74,9.47a4,4,0,0,0-1.57-3.31,5.53,5.53,0,0,0-3.55-1.13c-3.16,0-5.19,2.48-5.19,5.54a5.21,5.21,0,0,0,5.16,5.4c2.09,0,3.21-1.23,4.4-2.76v4.41a9.62,9.62,0,0,1-2,1.25,6.92,6.92,0,0,1-2.69.47c-5,0-8.34-4.18-8.34-9a8.31,8.31,0,0,1,8.73-8.67c5,0,8.56,2.88,8.56,8.08v9.26h-.24a3.25,3.25,0,0,1-3.25-3.26h0Zm-47.78-1a4.21,4.21,0,0,0-2.27-2.76c-3-1.7-6-.25-7.39,2.75Zm-2.66,10.82a9.12,9.12,0,0,1-6.55-1.09,8.65,8.65,0,0,1-4.18-5.2,9,9,0,0,1,6.14-11.07,8.53,8.53,0,0,1,6.62.84c3.49,2,4.76,5,4.54,8.91l-14.06,0a5.38,5.38,0,0,0,6.46,4.22,7.78,7.78,0,0,0,3.28-2.52l2.87,2.1a7.23,7.23,0,0,1-5.12,3.85Zm29.43-17.29H565v17h-.24a3.25,3.25,0,0,1-3.25-3.26h0V503.62Zm-118.39,17c-3.41,0-5.11-2.33-5.11-5.59V502.66a3.25,3.25,0,0,1,3.25-3.26h.25v4.23h5.9V507h-5.9v8.42c0,1.43.63,1.83,2,1.83h3.9v3.37h-4.28Zm20.27-2.15a8.92,8.92,0,0,1-12.38,0,8.45,8.45,0,0,1-2.59-6.35,8.8,8.8,0,0,1,15-6.33,9,9,0,0,1,0,12.68Zm16.32-10.76q-.77,1.29-1.19,1.86a4.8,4.8,0,0,1-.91,1c2.43.79,3.33,2.48,3.33,5v5.1h-.24a3.25,3.25,0,0,1-3.25-3.26v-1.49c0-1.63-.73-2.73-2.44-2.73h-3.17v7.49h-.24a3.25,3.25,0,0,1-3.24-3.26V499.26a3.25,3.25,0,0,1,3.24-3.26h.25v13.73h1a2.43,2.43,0,0,0,2.31-1.13l2.93-5h4l-2.37,4.09Zm18,10.76a8.92,8.92,0,0,1-12.38,0,8.45,8.45,0,0,1-2.59-6.35,8.8,8.8,0,0,1,15-6.33,9,9,0,0,1,0,12.68Zm-2.52-10.3a4.85,4.85,0,0,0-3.69-1.52c-3.21,0-5.13,2.35-5.13,5.47s2,5.47,5.13,5.47,5.13-2.4,5.13-5.47A5.49,5.49,0,0,0,495.2,508.17Zm-34.34,0a4.85,4.85,0,0,0-3.69-1.52c-3.21,0-5.13,2.35-5.13,5.47s2,5.47,5.13,5.47,5.13-2.4,5.13-5.47A5.49,5.49,0,0,0,460.86,508.17Z" transform="translate(-438 -496)" style="fill:#03ac0e"/></svg>