<svg width="65" height="65" viewBox="0 0 65 65" fill="none" xmlns="http://www.w3.org/2000/svg">
<path d="M11.5 25C13.9954 14.0549 22.4519 6 32.5 6C42.5481 6 51.0046 14.0549 53.5 25" stroke="#262629" stroke-width="2.8" stroke-linecap="round" stroke-linejoin="round"/>
<path d="M48.0167 41.9012L49.5158 24.7667L55.0945 25.2548C57.6254 25.4762 59.4975 27.7073 59.2761 30.2382L58.5788 38.2077C58.3574 40.7386 56.1263 42.6107 53.5954 42.3893L48.0167 41.9012Z" stroke="#262629" stroke-width="2.8" stroke-linejoin="round"/>
<path d="M16.6766 41.9012L15.1775 24.7667L9.59885 25.2548C7.06801 25.4762 5.19585 27.7073 5.41727 30.2382L6.11452 38.2077C6.33594 40.7386 8.56709 42.6107 11.0979 42.3893L16.6766 41.9012Z" stroke="#262629" stroke-width="2.8" stroke-linejoin="round"/>
<path d="M39.1037 55.1353C38.335 55.2183 37.7791 55.9088 37.8621 56.6775C37.9451 57.4463 38.6356 58.0021 39.4043 57.9191L39.1037 55.1353ZM50.6235 42.5068L48.6406 47.7556L51.2599 48.7452L53.2429 43.4963L50.6235 42.5068ZM48.6406 47.7556C47.1065 51.8163 43.4194 54.6694 39.1037 55.1353L39.4043 57.9191C44.7693 57.3399 49.3528 53.7931 51.2599 48.7452L48.6406 47.7556Z" fill="#262629"/>
<rect x="28.5" y="54" width="10" height="5" rx="2" stroke="#262629" stroke-width="2.8" stroke-linejoin="round"/>
</svg>
