<svg width="18" height="18" viewBox="0 0 18 18" fill="none" xmlns="http://www.w3.org/2000/svg">
<rect x="8.44219" y="0.700977" width="1.13125" height="16.6" rx="0.565625" fill="#E6E6E6" stroke="#262629" stroke-width="0.1"/>
<path d="M11.4375 3.54492H13.95C15.1051 3.54492 15.6827 3.54492 16.1239 3.76972C16.5119 3.96746 16.8275 4.28298 17.0252 4.67107C17.25 5.11226 17.25 5.68981 17.25 6.84492V11.1387C17.25 12.2938 17.25 12.8713 17.0252 13.3125C16.8275 13.7006 16.5119 14.0161 16.1239 14.2139C15.6827 14.4387 15.1051 14.4387 13.95 14.4387H11.4375" stroke="#E6E6E6" stroke-width="1.2" stroke-linecap="round"/>
<path d="M0.75 5.56348C0.75 4.42439 1.67341 3.50098 2.8125 3.50098H9V14.501H2.8125C1.67341 14.501 0.75 13.5776 0.75 12.4385V5.56348Z" fill="#52525B" stroke="#E6E6E6" stroke-width="1.2"/>
</svg>
