<svg width="65" height="65" viewBox="0 0 65 65" fill="none" xmlns="http://www.w3.org/2000/svg">
<path fill-rule="evenodd" clip-rule="evenodd" d="M19.2672 22.8656C20.9701 16.2323 26.9914 11.3315 34.1536 11.3315C42.6411 11.3315 49.5217 18.2121 49.5217 26.6997V27.7997C49.5217 28.0206 49.7008 28.1997 49.9217 28.1997H51.0217C56.598 28.1997 61.1185 32.7202 61.1185 38.2965C61.1185 43.8728 56.598 48.3933 51.0217 48.3933H45.1291C45.0104 48.3933 44.8978 48.4461 44.8218 48.5373L42.9885 50.7373C42.7714 50.9978 42.9567 51.3933 43.2958 51.3933H51.0217C58.2549 51.3933 64.1185 45.5297 64.1185 38.2965C64.1185 31.6656 59.1908 26.1857 52.7975 25.3191C52.6069 25.2932 52.4573 25.1385 52.4391 24.947C51.5567 15.6247 43.7068 8.33154 34.1536 8.33154C26.0975 8.33154 19.2559 13.5166 16.7779 20.7296C16.7235 20.888 16.5772 20.9979 16.4101 21.0074C8.41973 21.4609 2.08008 28.0841 2.08008 36.188C2.08008 44.5857 8.88775 51.3933 17.2854 51.3933H22.9041C23.2432 51.3933 23.4285 50.9978 23.2114 50.7373L21.378 48.5373C21.302 48.4461 21.1895 48.3933 21.0708 48.3933H17.2854C10.5446 48.3933 5.08008 42.9288 5.08008 36.188C5.08008 29.4472 10.5446 23.9826 17.2854 23.9826C17.4435 23.9826 17.6009 23.9856 17.7574 23.9916L18.644 24.0252C18.8321 24.0323 18.9997 23.9073 19.0466 23.725L19.2672 22.8656Z" fill="#262629"/>
<path d="M29.6724 38V36.6C28.8992 36.6 28.2724 37.2268 28.2724 38H29.6724ZM36.3276 38H37.7276C37.7276 37.2268 37.1008 36.6 36.3276 36.6V38ZM29.6724 44.6276V46.0276C30.4456 46.0276 31.0724 45.4008 31.0724 44.6276H29.6724ZM23.6003 45.2916L24.652 44.3675H24.652L23.6003 45.2916ZM32.6991 55.647L33.7508 54.7229L32.6991 55.647ZM33.3001 55.647L32.2484 54.7229L32.2484 54.723L33.3001 55.647ZM42.3989 45.2916L41.3472 44.3675L41.3472 44.3675L42.3989 45.2916ZM36.3276 44.6276H34.9276C34.9276 45.4008 35.5544 46.0276 36.3276 46.0276V44.6276ZM29.6724 39.4H36.3276V36.6H29.6724V39.4ZM31.0724 44.6276V38H28.2724V44.6276H31.0724ZM29.6724 43.2276H23.9008V46.0276H29.6724V43.2276ZM23.9008 43.2276C22.3525 43.2276 21.5267 45.0526 22.5486 46.2157L24.652 44.3675C25.2197 45.0137 24.7609 46.0276 23.9008 46.0276V43.2276ZM22.5486 46.2157L31.6474 56.5711L33.7508 54.7229L24.652 44.3675L22.5486 46.2157ZM31.6474 56.5711C32.3643 57.387 33.6349 57.387 34.3518 56.5711L32.2484 54.723C32.6466 54.2697 33.3525 54.2697 33.7508 54.7229L31.6474 56.5711ZM34.3518 56.5711L43.4506 46.2157L41.3472 44.3675L32.2484 54.7229L34.3518 56.5711ZM43.4506 46.2157C44.4725 45.0526 43.6466 43.2276 42.0984 43.2276V46.0276C41.2383 46.0276 40.7794 45.0137 41.3472 44.3675L43.4506 46.2157ZM42.0984 43.2276H36.3276V46.0276H42.0984V43.2276ZM34.9276 38V44.6276H37.7276V38H34.9276Z" fill="#262629"/>
</svg>
