<svg width="65" height="65" viewBox="0 0 65 65" fill="none" xmlns="http://www.w3.org/2000/svg">
<path d="M6.05957 11.479C6.05957 10.4543 6.89028 9.62354 7.91502 9.62354H21.367C27.5155 9.62354 32.4998 14.6078 32.4998 20.7562V58.3291C32.4998 53.7178 28.7615 49.9796 24.1502 49.9796H7.91502C6.89029 49.9796 6.05957 49.1489 6.05957 48.1242V11.479Z" stroke="#262629" stroke-width="2.94689" stroke-linecap="round"/>
<path d="M58.9402 11.4786C58.9402 10.4539 58.1095 9.62317 57.0847 9.62317H43.6327C37.4843 9.62317 32.5 14.6074 32.5 20.7559V58.3288C32.5 53.7175 36.2382 49.9792 40.8495 49.9792H57.0847C58.1095 49.9792 58.9402 49.1485 58.9402 48.1238V11.4786Z" stroke="#262629" stroke-width="2.94689" stroke-linecap="round"/>
<path d="M41.3398 26.4041V26.4041C44.5821 25.7556 47.9206 25.7556 51.1628 26.4041V26.4041" stroke="#262629" stroke-width="2.94689" stroke-linecap="round"/>
<path d="M14.8184 26.4041V26.4041C18.0606 25.7556 21.3991 25.7556 24.6413 26.4041V26.4041" stroke="#262629" stroke-width="2.94689" stroke-linecap="round"/>
<path d="M41.3398 35.2447V35.2447C44.5821 34.5963 47.9206 34.5963 51.1628 35.2447V35.2447" stroke="#262629" stroke-width="2.94689" stroke-linecap="round"/>
<path d="M14.8184 35.2447V35.2447C18.0606 34.5963 21.3991 34.5963 24.6413 35.2447V35.2447" stroke="#262629" stroke-width="2.94689" stroke-linecap="round"/>
</svg>
