<svg width="16" height="16" viewBox="0 0 16 16" fill="none" xmlns="http://www.w3.org/2000/svg">
<path d="M10.691 3.64167V3.55C10.691 2.81866 10.4283 2.19646 9.90462 1.68787C9.38114 1.17946 8.74413 0.925 7.99802 0.925C7.25189 0.925 6.6179 1.17948 6.10074 1.6882C5.58361 2.19688 5.32435 2.81898 5.32435 3.55V3.64167H3.63268C3.29174 3.64167 2.99058 3.77395 2.73193 4.0326C2.47329 4.29124 2.34102 4.59239 2.34102 4.93333V13.6667C2.34102 14.0143 2.47298 14.3175 2.73232 14.5731C2.99106 14.8281 3.2921 14.9583 3.63268 14.9583H12.366C12.7066 14.9583 13.0076 14.8281 13.2664 14.5731C13.5257 14.3175 13.6577 14.0143 13.6577 13.6667V4.93333C13.6577 4.59239 13.5254 4.29124 13.2667 4.0326C13.0081 3.77395 12.707 3.64167 12.366 3.64167H10.691ZM6.69102 6.33333V5.00833H9.32435V6.33333C9.32435 6.51745 9.39054 6.67738 9.52078 6.80918L9.52079 6.80919C9.65134 6.94128 9.81128 7.00833 9.99643 7.00833C10.1856 7.00833 10.35 6.94182 10.4857 6.81033L10.4348 6.7578L10.4857 6.81032C10.6214 6.67878 10.691 6.51852 10.691 6.33333V5.00833H12.291V13.5917H3.70768V5.00833H5.32435V6.33333C5.32435 6.51745 5.39054 6.67738 5.52078 6.80918L5.52079 6.80919C5.65134 6.94128 5.81128 7.00833 5.99643 7.00833C6.18559 7.00833 6.35001 6.94182 6.48571 6.81033L6.48571 6.81032C6.62143 6.67878 6.69102 6.51852 6.69102 6.33333ZM8.93785 2.66254L8.98968 2.60833L8.93785 2.66254C9.19667 2.90999 9.32435 3.2045 9.32435 3.55V3.64167H6.69102V3.55C6.69102 3.2039 6.81594 2.90921 7.06849 2.66192C7.32053 2.41513 7.62877 2.29167 7.99802 2.29167C8.3673 2.29167 8.67912 2.41517 8.93785 2.66254Z" fill="#262629" stroke="#262629" stroke-width="0.15"/>
</svg>
